<?xml version="1.0" encoding="UTF-8" standalone="no"?>
<!-- Uploaded to: SVG Repo, www.svgrepo.com, Generator: SVG Repo Mixer Tools -->

<svg
   width="800px"
   height="800px"
   viewBox="0 0 1024 1024"
   class="icon"
   version="1.1"
   id="svg96"
   sodipodi:docname="alert.svg"
   inkscape:version="1.2.2 (b0a8486541, 2022-12-01)"
   xmlns:inkscape="http://www.inkscape.org/namespaces/inkscape"
   xmlns:sodipodi="http://sodipodi.sourceforge.net/DTD/sodipodi-0.dtd"
   xmlns="http://www.w3.org/2000/svg"
   xmlns:svg="http://www.w3.org/2000/svg">
  <defs
     id="defs100" />
  <sodipodi:namedview
     id="namedview98"
     pagecolor="#505050"
     bordercolor="#ffffff"
     borderopacity="1"
     inkscape:showpageshadow="0"
     inkscape:pageopacity="0"
     inkscape:pagecheckerboard="1"
     inkscape:deskcolor="#505050"
     showgrid="false"
     inkscape:zoom="0.90774833"
     inkscape:cx="400.44139"
     inkscape:cy="305.70147"
     inkscape:window-width="1444"
     inkscape:window-height="1236"
     inkscape:window-x="1640"
     inkscape:window-y="32"
     inkscape:window-maximized="0"
     inkscape:current-layer="svg96" />
  <path
     d="M793.4 660.2c-16.2-32.1-22.4-62.8-24.7-78.3-0.6-4.1-0.9-8.3-1-12.5l-1.2-124.5v-3.7c0-2.9-0.1-5.9-0.2-8.8l-0.1-14.2h-0.8c-2.1-22.3-7.2-44.2-15.2-65.2-10.4-27.2-25.5-52.5-44.9-75.2-33.6-39.3-79-69-129.6-85.1-7.4-53.6-49.5-94.7-100.2-94.7-52.7 0-96.1 44.5-100.9 101.1-46.6 18.2-86.9 47.6-117.4 85.9-31.3 39.3-49.8 84.9-54.3 133.2h-0.9v157.4c-0.1 1.6-1.9 27.4-37.6 79.1-13.7 19.8-46.8 70.1-54.6 81.9-10.8 12-14.1 28.8-8.2 44.2 6.4 17 22.3 28 40.5 28h666.8c18.1 0 34-10.9 40.5-27.9 5.9-15.4 2.7-32.2-8.1-44.2-16-24.2-41.8-64.5-47.9-76.5z m-619.8 88.7c13.1-19.8 31.2-47.2 40.2-60.1 16.7-24.2 29.3-47 37.6-67.8 6.7-16.9 10.4-32.2 10.6-44.4v-0.5-2.4V570.8v-0.3l0.3-29.9h-0.4v-62.4h1.1l-1-31c-0.1-2.3-0.1-4.3-0.1-6.1 0-43 14.6-84.1 42.3-118.8 27.5-34.5 65.3-59.9 109.4-73.3l23.9-7.3-2.9-24.8c-0.3-2.5-0.4-5-0.4-7.3 0-28.4 18.5-51.6 41.3-51.6s41.3 23.1 41.3 51.6c0 1.2-0.1 2.5-0.2 4.2l-1.7 25.4 24.8 5.8c47.2 11.1 89.8 36.6 120 71.9 30.6 35.8 46.8 78.8 46.8 124.3 0 1.8 0 3.8-0.1 6.1l-1 31h1.4l0.9 91.7c0.1 6.9 0.6 13.9 1.6 20.7 2.8 19.1 10.5 57 30.5 96.6 6.3 12.4 24.4 40.9 37.7 61.6H173.6zM693 230.5c26.6 8.5 55 36 74 71.8 7.7 14.5 13.4 29.4 17 44.2 3.3 13.7 15.6 22.9 29.1 22.9 2.3 0 4.7-0.3 7.1-0.9 16.1-3.9 26-20.1 22.1-36.2-4.8-19.7-12.3-39.3-22.4-58.2-26.5-49.9-67.2-87.6-108.8-100.8-15.8-5-32.7 3.7-37.7 19.5s3.8 32.7 19.6 37.7zM928.2 296.7c-8.2-29.9-22.2-60.7-40.4-89.2-31.3-48.9-73.7-88.1-116.2-107.6-15.1-6.9-32.9-0.3-39.8 14.8-6.9 15.1-0.3 32.9 14.8 39.8 32.3 14.8 65.4 45.9 90.7 85.4 15 23.4 26.4 48.5 33.1 72.7 3.7 13.3 15.7 22.1 28.9 22.1 2.6 0 5.3-0.3 8-1.1 15.9-4.4 25.3-21 20.9-36.9z"
     fill="#45484C"
     id="path92"
     style="fill:#879191;fill-opacity:1" />
  <path
     d="M555.8 812.1c-16.6 0-30 13.4-30 30 0 8.5-1.3 16.8-3.8 24.6-5.1 15.8 3.5 32.7 19.2 37.8 3.1 1 6.2 1.5 9.3 1.5 12.6 0 24.4-8 28.5-20.7 4.5-13.8 6.8-28.4 6.8-43.2 0-16.5-13.5-30-30-30zM475.5 906.6c-12.5 0-24.5-6.1-33.9-17.1-10.6-12.4-16.4-29.3-16.4-47.4 0-16.6-13.4-30-30-30s-30 13.4-30 30c0 32.4 10.9 63 30.6 86.2 21 24.7 49.2 38.3 79.6 38.3 16.6 0 30-13.4 30-30s-13.3-30-29.9-30z"
     fill="#33CC99"
     id="path94"
     style="fill:#888c93;fill-opacity:1" />
  <path
     style="fill:#888c93;stroke-width:1.10163"
     d="m 103.4751,630.28353 c -15.576316,-4.22091 -25.184205,-16.27495 -25.235395,-31.66032 -0.01331,-3.99937 0.562558,-8.95669 1.279698,-11.01627 0.71714,-2.05957 15.11382,-24.50137 31.992617,-49.87066 29.84626,-44.85974 38.27236,-59.33065 44.02244,-75.60379 2.50358,-7.08532 2.53721,-7.87834 3.20027,-75.46144 0.74218,-75.64867 0.80568,-76.37392 8.8254,-100.79886 10.15554,-30.92982 24.91016,-54.63048 49.46037,-79.44928 20.92923,-21.1582 40.49317,-34.90976 64.99599,-45.6859 l 10.46546,-4.60262 2.02001,-9.76632 c 6.91175,-33.41688 30.05942,-59.439633 59.6711,-67.082621 8.80853,-2.273546 25.88536,-2.249457 34.81578,0.04911 28.0462,7.218711 50.80012,31.498481 58.411,62.327981 l 2.31302,9.36938 7.31145,2.54156 c 11.4739,3.98849 37.17666,16.83701 48.07163,24.03046 43.08882,28.44961 74.05513,70.54103 86.46047,117.52261 5.75369,21.7905 6.53365,32.09931 7.59286,100.35752 1.08711,70.05597 0.85525,67.78094 9.591,94.10649 7.02839,21.18032 14.71332,35.26752 41.8122,76.64568 14.24462,21.75056 14.23774,21.73535 14.22329,31.39637 -0.021,14.0983 -7.21063,25.24813 -20.13049,31.21912 l -5.15084,2.3805 -265.49209,0.20786 c -208.17488,0.163 -266.57913,-0.0867 -270.52724,-1.15656 z m 503.92317,-46.14585 c -0.4564,-0.75737 -6.2655,-10.05235 -12.90911,-20.65551 -18.32682,-29.24946 -27.59268,-49.7865 -34.45903,-76.37567 -5.86799,-22.72314 -5.97152,-24.07267 -7.07155,-92.17325 -1.1511,-71.26267 -1.64192,-77.00892 -8.26948,-96.8151 -8.0172,-23.95906 -20.58425,-43.3964 -40.39325,-62.4759 -23.88403,-23.00444 -52.12942,-37.77192 -88.28954,-46.16022 l -13.07739,-3.03365 0.77659,-13.01145 c 0.91721,-15.36763 -0.30838,-22.93061 -5.22318,-32.23142 -11.30783,-21.39906 -36.48972,-24.21539 -50.50767,-5.64874 -8.89699,11.78398 -10.98073,26.56702 -7.00509,49.69736 0.55029,3.20156 0.31344,3.54844 -2.90551,4.25544 -7.92686,1.74103 -30.68837,9.82189 -40.24651,14.28843 -46.804,21.87163 -80.6122,63.52254 -90.80196,111.86585 -2.31425,10.97949 -2.4479,14.60142 -2.85193,77.28503 -0.47717,74.02881 -0.19122,71.15574 -9.37707,94.21796 -6.36193,15.97246 -15.69584,31.90563 -39.3054,67.09517 -10.98959,16.37976 -19.98108,30.11242 -19.98108,30.51703 0,0.40462 106.3638,0.73567 236.36399,0.73567 188.79935,0 236.197,-0.2771 235.53417,-1.37703 z"
     id="path857"
     transform="scale(1.28)" />
  <path
     style="fill:#888c93;stroke-width:1.10163"
     d="m 626.26546,286.02093 c -7.42832,-3.37462 -10.96382,-8.55494 -15.29314,-22.40797 -11.61255,-37.15806 -35.88633,-68.67511 -62.2417,-80.81459 -14.18116,-6.53195 -15.98948,-7.74963 -19.25362,-12.96495 -6.1284,-9.79173 -4.69373,-21.10146 3.6308,-28.62218 8.24197,-7.44612 16.73345,-7.98236 31.09891,-1.96388 30.66382,12.84675 62.24358,46.02443 80.3188,84.38291 12.66377,26.87449 15.85357,44.80999 9.63945,54.20017 -3.61686,5.46546 -12.53059,10.25595 -19.01793,10.22081 -2.45609,-0.0133 -6.4528,-0.92695 -8.88157,-2.03032 z"
     id="path859"
     transform="scale(1.28)" />
  <path
     style="fill:#888c93;stroke-width:1.10163"
     d="m 693.47415,258.9088 c -7.92168,-3.69069 -10.05209,-6.92428 -15.98707,-24.26554 -16.5619,-48.39175 -51.24141,-91.78111 -89.76912,-112.31487 -13.08622,-6.97444 -17.07521,-12.32413 -17.07521,-22.89978 0,-17.002608 16.07852,-27.328221 32.01641,-20.560907 29.42637,12.494599 64.3777,44.314987 88.31482,80.403567 16.9044,25.48576 34.04632,64.9769 34.1639,78.70592 0.0744,8.69057 -4.67113,16.38677 -12.61678,20.46153 -4.85699,2.49082 -14.21398,2.72174 -19.04695,0.47008 z"
     id="path861"
     transform="scale(1.28)" />
  <path
     style="fill:#888c93;stroke-width:1.10163"
     d="m 426.32962,706.66301 c -14.19526,-2.49279 -21.99978,-16.19187 -17.55973,-30.82217 0.64237,-2.11663 1.58606,-8.41468 2.09711,-13.99566 1.10578,-12.07603 3.86115,-17.92786 10.70324,-22.73151 12.03046,-8.44626 29.81213,-2.26655 34.5194,11.99661 3.07039,9.30337 -1.51482,37.61918 -7.47583,46.16672 -5.061,7.25702 -13.69619,10.89413 -22.28419,9.38601 z"
     id="path863"
     transform="scale(1.28)" />
  <path
     style="fill:#888c93;stroke-width:1.10163"
     d="m 363.53688,754.04833 c -18.31697,-1.83333 -33.75997,-9.43467 -47.998,-23.62554 -18.95636,-18.89359 -28.90813,-42.26391 -29.32103,-68.85627 -0.13537,-8.71888 0.15323,-10.22284 2.8422,-14.81122 7.95244,-13.56982 25.85447,-15.56183 36.26771,-4.03562 4.54494,5.03071 5.86347,8.96228 6.67682,19.90891 1.04805,14.10521 6.23872,26.09528 15.1916,35.09145 6.47941,6.51075 13.37064,9.78156 23.17248,10.99846 9.58877,1.19046 13.60555,3.02804 18.29576,8.36989 9.3143,10.6084 6.02858,28.20844 -6.40971,34.33366 -6.17623,3.04147 -9.67078,3.53179 -18.71783,2.62628 z"
     id="path865"
     transform="scale(1.28)" />
</svg>
