<?xml version="1.0" encoding="UTF-8" standalone="no"?>
<!-- Uploaded to: SVG Repo, www.svgrepo.com, Generator: SVG Repo Mixer Tools -->

<svg
   width="800px"
   height="800px"
   viewBox="0 0 24 24"
   fill="none"
   version="1.1"
   id="svg3300"
   sodipodi:docname="calendar-clock.svg"
   inkscape:version="1.2.2 (b0a8486541, 2022-12-01)"
   xmlns:inkscape="http://www.inkscape.org/namespaces/inkscape"
   xmlns:sodipodi="http://sodipodi.sourceforge.net/DTD/sodipodi-0.dtd"
   xmlns="http://www.w3.org/2000/svg"
   xmlns:svg="http://www.w3.org/2000/svg">
  <defs
     id="defs3304" />
  <sodipodi:namedview
     id="namedview3302"
     pagecolor="#505050"
     bordercolor="#ffffff"
     borderopacity="1"
     inkscape:showpageshadow="0"
     inkscape:pageopacity="0"
     inkscape:pagecheckerboard="1"
     inkscape:deskcolor="#505050"
     showgrid="false"
     inkscape:zoom="1.28375"
     inkscape:cx="400"
     inkscape:cy="400"
     inkscape:window-width="3770"
     inkscape:window-height="2026"
     inkscape:window-x="0"
     inkscape:window-y="32"
     inkscape:window-maximized="1"
     inkscape:current-layer="svg3300" />
  <path
     d="M16 15.2V16.8875L16.9 17.9M9 11H4M20 9V7C20 5.89543 19.1046 5 18 5H6C4.89543 5 4 5.89543 4 7V19C4 20.1046 4.89543 21 6 21H9M15 3V7M9 3V7M20.5 17C20.5 19.4853 18.4853 21.5 16 21.5C13.5147 21.5 11.5 19.4853 11.5 17C11.5 14.5147 13.5147 12.5 16 12.5C18.4853 12.5 20.5 14.5147 20.5 17Z"
     stroke="#000000"
     stroke-width="1.5"
     stroke-linecap="round"
     stroke-linejoin="round"
     id="path3298" />
  <path
     style="fill:#888c93;stroke-width:0.778968"
     d="m 189.28919,723.99118 c -12.56345,-1.52277 -26.49284,-6.46398 -37.64409,-13.35358 -7.73493,-4.77888 -22.44143,-18.82157 -26.86744,-25.65471 -7.08011,-10.93069 -11.10422,-20.2367 -14.32338,-33.12371 -1.23116,-4.92859 -1.34772,-20.49581 -1.60001,-213.68975 -0.20169,-154.43864 -0.0389,-210.28801 0.62895,-215.76888 4.35539,-35.74396 30.45975,-66.66851 64.65831,-76.5975 11.52956,-3.34742 16.34145,-3.64141 59.60078,-3.64141 h 41.52265 l 0.24484,-24.34275 0.24483,-24.342746 2.13058,-4.04084 c 2.79722,-5.305172 6.9977,-9.34445 12.28032,-11.809022 12.39382,-5.782259 27.78281,0.729031 32.77507,13.867568 1.35898,3.576566 1.49952,6.135784 1.49952,27.30711 v 23.36068 H 400 475.55988 v -23.36068 c 0,-21.171326 0.14054,-23.730544 1.49952,-27.30711 2.28726,-6.019573 6.32975,-10.409056 12.2872,-13.3419 12.35161,-6.080678 26.10814,-1.351647 32.75668,11.26065 l 2.14209,4.063544 0.24483,24.342746 0.24484,24.34275 41.42995,0.003 c 32.63346,0.002 42.92222,0.24517 48.4583,1.1431 18.6371,3.02285 36.02598,11.93832 49.43722,25.34701 14.72549,14.72269 23.97675,33.51084 26.46428,53.74568 0.61433,4.99723 0.82975,19.77096 0.6644,45.56439 l -0.24469,38.16943 -2.1859,4.45136 c -9.0414,18.4119 -34.59812,18.31548 -44.27485,-0.16702 l -1.83526,-3.50536 -0.45066,-40.89581 c -0.49381,-44.81244 -0.34682,-43.38691 -5.46372,-52.9872 -4.63066,-8.68803 -13.31696,-15.97107 -23.38527,-19.60744 -4.92927,-1.7803 -5.35886,-1.79887 -46.80274,-2.02326 l -41.82779,-0.22646 -0.23647,23.98498 c -0.22789,23.11539 -0.30156,24.12879 -2.03209,27.9514 -0.98759,2.18153 -3.44134,5.58292 -5.45277,7.55863 -9.97369,9.79659 -24.89782,9.54384 -34.74526,-0.58843 -6.30822,-6.49068 -6.69184,-8.52596 -6.69184,-35.50332 V 191.23661 H 400 324.44012 v 23.33982 c 0,26.97736 -0.38362,29.01264 -6.69184,35.50332 -7.13683,7.34325 -18.31671,9.82662 -26.973,5.99146 -5.09972,-2.25942 -10.98485,-8.00284 -13.18419,-12.86672 -1.78195,-3.9408 -1.84348,-4.77328 -2.07293,-28.04634 l -0.23647,-23.98498 -41.82779,0.22646 c -41.62902,0.22539 -41.85187,0.23514 -46.8911,2.05117 -10.38308,3.74187 -19.16022,11.33569 -23.91162,20.68791 -4.6498,9.15222 -4.42792,5.87555 -4.71281,69.60034 l -0.26206,58.61733 h 73.50604 c 84.63835,0 78.03349,-0.56435 85.89194,7.33896 3.54618,3.56642 5.03613,5.76643 6.037,8.91407 3.4199,10.75526 -0.19026,21.95805 -9.03773,28.04527 -7.16546,4.92997 -4.46819,4.77667 -84.04605,4.77667 h -72.31876 l 0.21087,124.8296 0.21086,124.82961 1.74118,5.11947 c 4.57308,13.44592 15.78522,24.08211 29.13042,27.63407 3.42206,0.91081 13.66542,1.11759 56.3728,1.13798 28.70496,0.0137 54.39525,0.34368 57.08952,0.7333 12.54171,1.81366 20.92804,10.51375 21.79344,22.60879 0.73903,10.32884 -4.21579,18.90147 -13.59351,23.51899 l -5.27416,2.59696 -55.3241,0.10598 c -30.42826,0.0583 -57.77785,-0.19142 -60.77688,-0.55492 z"
     id="path3786"
     transform="scale(0.03)" />
  <path
     style="fill:#888c93;stroke-width:0.778968"
     d="m 512.77486,740.06119 c -39.81214,-5.07513 -74.49562,-22.03635 -102.71236,-50.22932 -31.60634,-31.57972 -49.24067,-71.81269 -51.06763,-116.51152 -2.80524,-68.63361 35.31417,-132.46158 97.4803,-163.22313 43.34028,-21.44598 94.7325,-23.73803 139.66124,-6.22877 33.93835,13.22618 62.36066,36.13472 82.98048,66.8827 6.52366,9.72799 16.16107,29.54078 19.81452,40.73508 9.83233,30.12662 11.46658,62.17384 4.76048,93.35154 -5.12456,23.82494 -18.81717,52.14213 -34.47975,71.30634 -27.47419,33.61649 -65.10681,55.52088 -107.96579,62.84241 -11.80056,2.01586 -36.74906,2.569 -48.47149,1.07467 z m 41.85026,-49.87376 c 45.32629,-7.94974 83.02119,-40.17986 97.37609,-83.25908 5.03883,-15.12159 6.14659,-22.37182 6.14659,-40.22923 0,-13.63401 -0.25686,-17.16472 -1.75673,-24.148 -3.69871,-17.22084 -10.01127,-32.24425 -19.65229,-46.77094 -6.59635,-9.93911 -22.67723,-26.01998 -32.61633,-32.61633 -23.45859,-15.56891 -49.34382,-22.89792 -76.37172,-21.62349 -83.37728,3.93145 -139.47819,85.60806 -113.25472,164.88612 3.56417,10.77511 10.01008,23.56581 16.48765,32.71666 10.22013,14.43795 26.94402,29.25244 42.74745,37.8669 12.31194,6.71125 30.65712,12.5154 45.06149,14.25682 8.33871,1.00811 27.16346,0.44103 35.83252,-1.07943 z"
     id="path3788"
     transform="scale(0.03)" />
  <path
     style="fill:#888c93;stroke-width:0.778968"
     d="m 555.94157,620.1217 c -1.84655,-0.60224 -4.57663,-1.91445 -6.06685,-2.91603 -4.45606,-2.99493 -35.4403,-38.26022 -38.28757,-43.57773 l -2.53165,-4.72803 V 534.8178 500.73569 l 2.37338,-4.74956 c 9.21153,-18.43389 34.98693,-18.17219 44.13072,0.44806 l 2.18139,4.44215 0.24041,26.51848 0.24041,26.51848 12.46147,13.98785 c 15.51404,17.41432 16.64414,19.36898 16.64414,28.78824 0,6.08589 -0.27365,7.53101 -2.07447,10.95498 -2.50134,4.75588 -7.34476,9.29644 -12.21418,11.45041 -4.5257,2.00193 -12.61744,2.48795 -17.0972,1.02692 z"
     id="path3790"
     transform="scale(0.03)" />
</svg>
