<?xml version="1.0" encoding="UTF-8" standalone="no"?>
<!-- Uploaded to: SVG Repo, www.svgrepo.com, Generator: SVG Repo Mixer Tools -->

<svg
   fill="#000000"
   height="800px"
   width="800px"
   version="1.1"
   id="Capa_1"
   viewBox="0 0 376 376"
   xml:space="preserve"
   sodipodi:docname="graph.svg"
   inkscape:version="1.2.2 (b0a8486541, 2022-12-01)"
   xmlns:inkscape="http://www.inkscape.org/namespaces/inkscape"
   xmlns:sodipodi="http://sodipodi.sourceforge.net/DTD/sodipodi-0.dtd"
   xmlns="http://www.w3.org/2000/svg"
   xmlns:svg="http://www.w3.org/2000/svg"><defs
   id="defs57" /><sodipodi:namedview
   id="namedview55"
   pagecolor="#505050"
   bordercolor="#ffffff"
   borderopacity="1"
   inkscape:showpageshadow="0"
   inkscape:pageopacity="0"
   inkscape:pagecheckerboard="1"
   inkscape:deskcolor="#505050"
   showgrid="false"
   inkscape:zoom="1.28375"
   inkscape:cx="400.77897"
   inkscape:cy="400"
   inkscape:window-width="1444"
   inkscape:window-height="1236"
   inkscape:window-x="1653"
   inkscape:window-y="32"
   inkscape:window-maximized="0"
   inkscape:current-layer="Capa_1" />
<g
   id="g52">
	<path
   d="M366,341H20V25c0-5.523-4.477-10-10-10C4.477,15,0,19.477,0,25v326c0,5.523,4.477,10,10,10h356c5.523,0,10-4.477,10-10   C376,345.477,371.523,341,366,341z"
   id="path46" />
	<path
   d="M29.758,317.126h316.484c0.553,0,1-0.448,1-1c0-0.552-0.447-1-1-1H29.758c-0.553,0-1,0.448-1,1   C28.758,316.678,29.205,317.126,29.758,317.126z"
   id="path48" />
	<path
   d="M28.758,256.126c0,0.552,0.447,1,1,1h28.571c1.112,4.116,2.576,8.615,4.5,13.135c9.14,21.469,24.059,32.816,43.145,32.816   c24.957,0,34.054-30.883,37.044-41.032c0.472-1.601,0.924-3.249,1.365-4.919H247.08c6.877,14.565,15.85,23.683,28.561,23.683   c13.278,0,22.481-7.963,27.393-23.683h43.209c0.553,0,1-0.448,1-1c0-0.552-0.447-1-1-1h-42.639   c0.117-0.422,0.246-0.824,0.357-1.256c3.668-14.173,4.16-32.203,4.681-51.291c0.05-1.816,0.1-3.635,0.152-5.453h37.448   c0.553,0,1-0.448,1-1c0-0.552-0.447-1-1-1h-37.389c0.022-0.693,0.042-1.388,0.064-2.08c7.695-3.432,16.016-5.636,26.223-5.636   c1.657,0,3-1.343,3-3c0-1.657-1.343-3-3-3c-10,0-18.375,1.975-25.978,5.036c0.866-20.485,2.881-39.428,10.366-49.32h26.714   c0.553,0,1-0.448,1-1c0-0.552-0.447-1-1-1h-25.028c2.54-2.62,5.623-4.339,9.375-4.939c3.271-0.524,5.5-3.601,4.977-6.873   c-0.524-3.271-3.592-5.5-6.873-4.977c-9.722,1.556-17.023,7.096-22.099,16.789h-76.061c-5.852-25.804-13.1-47.415-24.871-58   h140.581c0.553,0,1-0.448,1-1c0-0.552-0.447-1-1-1H203.203c-4.419-3.228-9.438-5-15.203-5c-5.628,0-10.297,1.963-14.18,5H29.758   c-0.553,0-1,0.448-1,1c0,0.552,0.447,1,1,1h141.764c-9.116,8.822-13.24,23.579-14.964,29.759   c-2.36,8.461-4.271,17.991-5.942,28.241H29.758c-0.553,0-1,0.448-1,1c0,0.552,0.447,1,1,1h120.536   c-2.122,13.382-3.862,27.938-5.654,42.958c-0.593,4.97-1.194,10.003-1.817,15.042H127.17c-1.622-2.076-3.204-4.171-4.777-6.259   c-12.738-16.905-25.91-34.386-58.752-34.386c-1.657,0-3,1.343-3,3c0,1.657,1.343,3,3,3c29.851,0,41.023,14.828,53.96,31.996   c0.661,0.878,1.329,1.762,2.002,2.648H29.758c-0.553,0-1,0.448-1,1c0,0.552,0.447,1,1,1h91.372   c5.312,6.908,11.149,13.892,18.778,19.864c-2.01,13.726-4.369,26.85-7.406,38.136H70.258c-2.613-9.209-3.283-16.631-3.303-16.865   c-0.266-3.301-3.162-5.766-6.459-5.498c-3.303,0.264-5.767,3.156-5.502,6.46c0.033,0.417,0.591,7.06,2.812,15.904H29.758   C29.205,255.126,28.758,255.574,28.758,256.126z M275.641,268.809c-5.89,0-10.84-4.38-15.101-11.683h29.813   C287.316,264.645,282.726,268.809,275.641,268.809z M259.432,255.126c-4.07-7.671-7.496-18.041-10.518-29.731   c16.215-5.545,28.056-13.179,39.1-20.305c2.959-1.909,5.836-3.76,8.706-5.508c-0.024,0.891-0.049,1.781-0.073,2.669   c-0.625,22.885-1.565,41.271-5.547,52.875H259.432z M242.637,197.126h46.683c-1.517,0.964-3.033,1.938-4.559,2.923   c-10.568,6.819-21.887,14.122-37.308,19.466C245.734,212.34,244.146,204.781,242.637,197.126z M235.902,222.916   c-11.332,2.776-24.709,4.494-41.036,4.494c-19.03,0-32.556-3.763-42.949-9.584c0.983-6.794,1.887-13.73,2.75-20.7h75.735   C232.138,206.067,233.934,214.746,235.902,222.916z M305.588,137.126c-1.702,3.657-3.122,7.844-4.268,12.574   c-3.009,12.425-3.891,27.546-4.389,42.79c-1.484,0.855-2.957,1.734-4.42,2.637h-50.268c-1.272-6.525-2.492-13.101-3.686-19.549   c-2.451-13.23-4.87-26.279-7.576-38.451H305.588z M188,82.126c14.367,0,23.313,23.696,30.188,53h-55.377   C167.775,105.64,174.928,82.126,188,82.126z M156.555,181.506c1.766-14.797,3.606-30.22,5.924-44.38h56.172   c2.996,13.051,5.604,27.116,8.108,40.637c1.083,5.845,2.159,11.653,3.257,17.363h-75.104   C155.47,190.583,156.015,186.033,156.555,181.506z M128.754,197.126h13.82c-0.539,4.315-1.098,8.629-1.683,12.906   C136.311,206.057,132.395,201.661,128.754,197.126z M150.979,224.113c10.873,5.637,24.852,9.297,43.888,9.297   c16.913,0,30.768-1.774,42.503-4.641c2.556,9.82,5.418,18.761,8.795,26.357H144.893   C147.302,245.622,149.272,235.123,150.979,224.113z M131.951,257.126c-5.681,20.145-13.676,33.951-25.977,33.951   c-20.552,0-30.466-18.785-35.123-33.951H131.951z"
   id="path50" />
</g>
<path
   style="fill:#888c93;stroke-width:0.778968"
   d="M 14.273984,766.39724 C 9.5906056,764.73774 4.4283787,759.86317 2.2507121,755.04396 L 0.38948393,750.92502 V 400 49.074976 L 2.2507121,44.956047 C 7.0203443,34.40077 19.84973,29.479054 29.990263,34.31437 c 4.593304,2.190227 9.291803,7.262314 10.783885,11.641335 1.193043,3.501386 1.290117,29.213613 1.290117,341.715535 v 337.92927 l 370.593965,0.19877 370.59396,0.19877 4.44331,2.18196 c 7.47272,3.66959 11.58949,10.17482 11.62875,18.37522 0.0428,8.89099 -5.69309,17.08844 -13.91712,19.89065 -3.25881,1.1104 -39.90292,1.22111 -385.74064,1.16545 -335.251405,-0.054 -382.538829,-0.20292 -385.392506,-1.21409 z"
   id="path909"
   transform="scale(0.47)" /><path
   style="fill:#888c93;stroke-width:0.778968"
   d="m 213.5745,643.75909 c -30.7926,-3.99612 -56.51571,-23.87086 -73.74964,-56.98204 -5.00263,-9.61145 -9.47712,-20.62059 -12.98495,-31.94852 l -2.59039,-8.36523 -31.160789,-0.20341 c -27.088758,-0.17684 -31.160786,-0.35611 -31.160786,-1.37187 0,-1.01531 4.007048,-1.19516 30.574489,-1.37223 27.374506,-0.18245 30.574486,-0.33375 30.574486,-1.4455 0,-0.68294 -0.51228,-3.22026 -1.1384,-5.63848 -1.6948,-6.54571 -4.31404,-23.33138 -4.31422,-27.64807 -3e-4,-7.33353 4.09303,-12.14008 10.89528,-12.79369 4.73163,-0.45465 8.87395,1.4487 11.32299,5.20278 1.34812,2.0665 2.14754,5.14464 3.05351,11.75751 0.675,4.92697 2.11433,12.81402 3.1985,17.52678 1.08419,4.71275 2.17678,9.53456 2.428,10.71514 l 0.45675,2.14649 66.64916,-0.19907 66.64914,-0.19908 1.79671,-7.01071 c 2.88783,-11.26816 8.58731,-39.95641 11.45204,-57.64362 l 2.6495,-16.35832 -2.44724,-2.24563 c -1.34598,-1.2351 -5.02329,-4.5334 -8.17181,-7.32957 -6.29168,-5.58759 -15.96911,-16.20375 -24.43226,-26.80224 l -5.46932,-6.84928 -97.86366,-0.19774 c -86.382709,-0.17455 -97.863645,-0.33482 -97.863645,-1.3662 0,-1.03126 11.31803,-1.19167 96.397275,-1.36624 53.0185,-0.10879 96.39727,-0.40338 96.39727,-0.65463 0,-0.77719 -14.64757,-19.71485 -22.34693,-28.89208 -15.5833,-18.57444 -30.42888,-29.93132 -48.02946,-36.74257 -12.75344,-4.93546 -24.52575,-7.24292 -42.50818,-8.33194 -7.88401,-0.47745 -9.09856,-0.74471 -10.7108,-2.35697 -2.34944,-2.34942 -2.31317,-5.3602 0.0936,-7.76692 1.70326,-1.70327 2.5755,-1.91202 7.98919,-1.91202 20.36545,0 45.02246,5.91996 60.98487,14.642 20.34128,11.11469 34.43638,24.95871 61.42789,60.33366 l 8.76684,11.48978 h 16.90832 16.90832 l 4.93946,-40.70107 c 4.36078,-35.9329 9.29476,-73.08644 10.70206,-80.58797 l 0.48155,-2.56685 H 191.80817 c -111.572315,0 -128.64516,-0.1496 -129.462421,-1.13434 -0.517776,-0.62387 -0.715277,-1.50021 -0.438892,-1.94742 0.345802,-0.55951 40.792383,-0.81308 129.694833,-0.81308 H 320.794 l 0.92658,-5.64752 c 1.94359,-11.84611 7.10464,-36.72528 9.76295,-47.06282 7.94546,-30.8981 17.08041,-51.32796 29.49323,-65.96008 l 4.39897,-5.18547 -150.94493,-0.0119 c -86.03168,-0.007 -151.412473,-0.30798 -152.032138,-0.70035 -0.59797,-0.37863 -0.871873,-1.24961 -0.608673,-1.93549 0.436547,-1.13763 13.983647,-1.24707 154.361131,-1.24707 h 153.88259 l 4.07759,-2.69656 c 2.24268,-1.48311 6.53135,-3.66544 9.53037,-4.84962 5.06823,-2.00121 6.24935,-2.15321 16.74781,-2.15522 12.85942,-0.002 17.17641,1.07401 26.6211,6.63821 l 5.19948,3.06319 h 152.7607 c 139.34883,0 152.80272,0.10949 153.23925,1.24707 0.2632,0.68588 -0.0107,1.55686 -0.60867,1.93549 -0.6196,0.39232 -65.54184,0.69355 -150.94282,0.70035 l -149.85561,0.0119 5.39189,5.67626 c 17.5984,18.52653 32.37458,53.24629 45.07398,105.91088 l 2.95846,12.26875 h 81.18514 81.18514 l 3.13276,-5.25804 c 5.92103,-9.93788 14.60325,-18.46563 24.14329,-23.71375 6.90183,-3.7968 18.17128,-7.08713 22.64969,-6.61299 6.18857,0.65518 11.0134,5.97432 11.00839,12.13619 -0.005,6.49839 -4.04545,10.73695 -12.00571,12.59524 -5.7683,1.34659 -11.50794,4.23105 -15.37195,7.72518 l -3.38865,3.06427 27.41264,0.0319 c 18.16813,0.0212 27.58211,0.30615 27.91516,0.84503 0.27639,0.4472 0.0789,1.32354 -0.43888,1.94742 -0.79303,0.95553 -5.46101,1.13433 -29.61481,1.13433 h -28.67338 l -1.51322,2.14216 c -7.39698,10.47145 -13.77003,31.79781 -16.81853,56.28043 -2.05066,16.46904 -4.13523,46.73807 -3.21875,46.73807 0.29534,0 3.513,-1.0504 7.15037,-2.33424 13.75206,-4.85387 28.93512,-7.68134 42.19496,-7.85774 7.3777,-0.0982 8.1927,0.0391 9.93184,1.67296 2.48251,2.3322 2.47538,5.67214 -0.0175,8.16494 -1.66555,1.66555 -2.61432,1.91202 -7.3603,1.91202 -13.1125,0 -31.5614,3.64298 -45.45018,8.97474 -7.52119,2.88732 -7.59494,2.94104 -7.59494,5.53214 v 2.61651 l 40.70107,0.2017 c 35.56978,0.17626 40.70108,0.349 40.70108,1.37014 0,1.02111 -5.12201,1.19387 -40.61763,1.37009 l -40.61763,0.20165 -0.49376,13.81977 c -2.19119,61.32789 -3.77144,79.85566 -8.67863,101.7531 -1.04499,4.66323 -1.90001,8.60398 -1.90001,8.75722 0,0.15324 20.76923,0.36904 46.15385,0.47954 40.41703,0.17595 46.15384,0.34616 46.15384,1.36937 0,1.02343 -5.8077,1.19337 -46.79246,1.36923 l -46.79245,0.20076 -1.38855,4.40498 c -2.17943,6.91395 -9.41906,20.40508 -13.92532,25.94997 -10.32928,12.71005 -22.86534,19.05863 -39.49459,20.00107 -9.75888,0.55307 -16.9572,-0.98589 -26.38672,-5.64136 -12.35182,-6.09823 -23.94741,-19.03226 -33.9939,-37.91771 l -3.62218,-6.809 h -109.326 -109.32599 l -1.24087,4.47906 c -10.15762,36.66509 -22.41226,60.7769 -38.65568,76.05755 -15.21006,14.30853 -32.01177,19.57201 -53.55284,16.77652 z m 24.0107,-26.32587 c 9.00917,-3.47138 18.55056,-12.79457 25.84844,-25.25731 5.40994,-9.23866 12.94862,-28.31112 17.38268,-43.97727 l 0.49607,-1.75268 h -65.50064 -65.50063 l 0.51618,2.14216 c 1.10052,4.56722 7.55478,20.37053 10.85684,26.5831 13.6026,25.59218 30.70422,39.661 53.17924,43.74841 6.21509,1.13032 17.91754,0.36476 22.72182,-1.48641 z m 361.57753,-47.78475 c 6.01626,-2.76374 11.05308,-7.62155 15.13823,-14.60021 5.53595,-9.45705 8.3695,-8.6023 -28.51712,-8.6023 -17.56573,0 -31.93769,0.1911 -31.93769,0.42466 0,1.40692 8.32924,12.34518 12.2072,16.03095 7.6702,7.29006 12.59604,9.29709 22.06739,8.9914 5.17395,-0.167 7.58752,-0.6576 11.04199,-2.2445 z m -75.04719,-26.90261 c -4.99091,-11.22956 -12.7887,-34.08507 -17.03323,-49.92478 -1.56294,-5.8326 -1.90969,-6.45979 -3.38929,-6.13035 -29.73997,6.62164 -53.94859,9.19315 -86.94521,9.23559 -36.92108,0.0474 -61.91888,-4.4784 -87.7874,-15.89399 l -7.94319,-3.50528 -0.4141,2.04806 c -0.22776,1.12644 -1.14198,6.42976 -2.0316,11.78516 -2.89695,17.43932 -8.58063,45.21029 -10.56194,51.60662 -0.40075,1.29378 5.09781,1.3632 107.97169,1.3632 59.61666,0 108.27709,-0.2629 108.13427,-0.58423 z m 95.94288,0.28862 c 0,-0.16259 1.03888,-4.45665 2.30862,-9.54236 3.03154,-12.14228 5.16882,-27.3859 6.59353,-47.02669 1.26599,-17.45286 3.09317,-61.48731 2.57296,-62.00753 -0.17842,-0.17841 -9.23058,5.3417 -20.11592,12.26694 -36.59615,23.28241 -55.11877,32.91762 -81.04095,42.15638 -1.1311,0.40313 -0.99487,1.45282 1.25445,9.66575 5.55034,20.26591 10.41723,34.16974 16.45078,46.99692 l 3.66241,7.7862 h 34.15706 c 18.78638,0 34.15706,-0.13303 34.15706,-0.29561 z M 442.07756,483.33169 c 16.61666,-1.0635 35.12566,-3.42681 48.68246,-6.21598 6.10768,-1.25659 11.2135,-2.39334 11.34625,-2.52611 0.13277,-0.13277 -1.10992,-6.19077 -2.76152,-13.46223 -1.65161,-7.27146 -4.31181,-19.79339 -5.91154,-27.82649 l -2.90862,-14.60565 h -80.90008 c -44.49504,0 -80.90226,0.2629 -80.90493,0.58422 -0.002,0.32133 -1.22569,9.69815 -2.71782,20.8374 -1.49213,11.13924 -2.71681,21.02709 -2.72153,21.973 -0.0111,2.21193 3.80298,4.46337 15.57079,9.19162 14.95289,6.00799 34.06303,10.36288 52.7605,12.02326 10.27181,0.91217 36.41697,0.92613 50.46604,0.0269 z m 95.33452,-19.92323 c 11.4791,-4.55254 26.66569,-11.95741 38.63466,-18.83797 13.0381,-7.49517 39.33788,-24.32462 39.33788,-25.17263 0,-0.74617 -98.34967,-1.02223 -99.09375,-0.27815 -0.41574,0.41574 4.52314,25.24501 8.01155,40.27659 1.25453,5.40577 2.09595,7.59494 2.91917,7.59494 0.63614,0 5.22185,-1.61226 10.19049,-3.58278 z M 301.84594,434.27459 c 0.69965,-5.78384 1.46397,-11.65531 1.6985,-13.04772 l 0.42641,-2.53164 h -15.27656 c -8.40211,0 -15.27657,0.21531 -15.27657,0.47845 0,0.90821 8.14539,10.06635 17.09904,19.22503 7.36061,7.52917 9.07879,8.93514 9.51942,7.78968 0.29571,-0.76875 1.1101,-6.12997 1.80976,-11.9138 z m 187.74477,-20.44791 c -0.22537,-0.96397 -3.91353,-20.41894 -8.19591,-43.23328 -7.08373,-37.73851 -10.6943,-55.91657 -14.46622,-72.83293 l -1.3461,-6.037 h -60.24986 c -33.13742,0 -60.24985,0.13484 -60.24985,0.29964 0,0.1648 -1.56055,11.2943 -3.46788,24.73223 -3.30851,23.3098 -12.11148,94.01028 -12.11148,97.27257 0,1.53924 0.63118,1.55145 80.24853,1.55145 h 80.24853 z m 138.06265,-1.3508 4.86855,-3.08867 0.004,-6.83577 c 0.002,-3.75967 0.352,-12.6196 0.7778,-19.68873 2.55134,-42.35707 7.37317,-68.11051 16.88173,-90.16553 0.33428,-0.77537 -15.85625,-0.97371 -79.48331,-0.97371 -63.5973,0 -79.82881,0.1987 -79.53909,0.97371 1.13376,3.03356 23.73483,119.63503 23.73483,122.45209 0,0.23655 24.27459,0.42675 53.94353,0.42269 l 53.94352,-0.008 4.86855,-3.08868 z M 464.26485,286.67507 c 0,-0.63445 -1.58318,-7.30471 -3.51817,-14.82279 -15.96192,-62.01725 -33.45023,-92.37924 -55.83801,-96.94206 -26.12293,-5.32408 -44.27492,28.97133 -58.63203,110.77625 l -0.37596,2.14216 h 59.18209 c 51.74731,0 59.18208,-0.14492 59.18208,-1.15356 z"
   id="path911"
   transform="scale(0.47)" /><path
   style="fill:#888c93;stroke-width:0.778968"
   d="m 61.886547,673.35074 c -0.288159,-0.46625 -0.203532,-1.16813 0.188061,-1.55972 0.428417,-0.42842 135.188382,-0.63407 338.354722,-0.51635 299.52061,0.17354 337.64272,0.32756 337.64272,1.36408 0,1.03653 -38.14301,1.19054 -337.83079,1.36409 -242.843,0.14062 -337.978098,-0.0427 -338.354713,-0.6521 z"
   id="path913"
   transform="scale(0.47)" /><path
   style="fill:#888c93;stroke-width:0.778968"
   d=""
   id="path915"
   transform="scale(0.47)" /></svg>
