<?xml version="1.0" encoding="UTF-8" standalone="no"?>
<!-- Uploaded to: SVG Repo, www.svgrepo.com, Generator: SVG Repo Mixer Tools -->

<svg
   fill="#000000"
   height="800px"
   width="800px"
   version="1.1"
   id="Layer_1"
   viewBox="0 0 512 512"
   xml:space="preserve"
   sodipodi:docname="notebook.svg"
   inkscape:version="1.2.2 (b0a8486541, 2022-12-01)"
   xmlns:inkscape="http://www.inkscape.org/namespaces/inkscape"
   xmlns:sodipodi="http://sodipodi.sourceforge.net/DTD/sodipodi-0.dtd"
   xmlns="http://www.w3.org/2000/svg"
   xmlns:svg="http://www.w3.org/2000/svg"><defs
   id="defs1029" /><sodipodi:namedview
   id="namedview1027"
   pagecolor="#505050"
   bordercolor="#ffffff"
   borderopacity="1"
   inkscape:showpageshadow="0"
   inkscape:pageopacity="0"
   inkscape:pagecheckerboard="1"
   inkscape:deskcolor="#505050"
   showgrid="false"
   inkscape:zoom="1.28375"
   inkscape:cx="400"
   inkscape:cy="400.77897"
   inkscape:window-width="1444"
   inkscape:window-height="1236"
   inkscape:window-x="2326"
   inkscape:window-y="817"
   inkscape:window-maximized="0"
   inkscape:current-layer="Layer_1" />
<g
   id="g994">
	<g
   id="g992">
		<path
   d="M394.894,0c-4.513,0-8.17,3.658-8.17,8.17v495.66c0,4.512,3.657,8.17,8.17,8.17s8.17-3.658,8.17-8.17V8.17    C403.064,3.658,399.407,0,394.894,0z"
   id="path990" />
	</g>
</g>
<g
   id="g1000">
	<g
   id="g998">
		<path
   d="M296.851,0H8.17C3.658,0,0,3.658,0,8.17v495.66c0,4.512,3.658,8.17,8.17,8.17h288.681    c22.526,0,40.851-18.325,40.851-40.851V40.851C337.702,18.325,319.377,0,296.851,0z M321.362,471.149    c0,13.516-10.996,24.511-24.511,24.511H16.34V16.34h280.511c13.515,0,24.511,10.995,24.511,24.511V471.149z"
   id="path996" />
	</g>
</g>
<g
   id="g1006">
	<g
   id="g1004">
		<path
   d="M40.851,32.681c-4.512,0-8.17,3.658-8.17,8.17v430.298c0,4.512,3.658,8.17,8.17,8.17s8.17-3.658,8.17-8.17V40.851    C49.021,36.339,45.363,32.681,40.851,32.681z"
   id="path1002" />
	</g>
</g>
<g
   id="g1012">
	<g
   id="g1010">
		<path
   d="M362.213,0c-4.513,0-8.17,3.658-8.17,8.17v495.66c0,4.512,3.657,8.17,8.17,8.17s8.17-3.658,8.17-8.17V8.17    C370.383,3.658,366.726,0,362.213,0z"
   id="path1008" />
	</g>
</g>
<g
   id="g1018">
	<g
   id="g1016">
		<path
   d="M506.553,44.049V8.17c0-4.512-3.657-8.17-8.17-8.17h-32.681c-4.513,0-8.17,3.658-8.17,8.17v35.879    c-3.171,1.123-5.447,4.14-5.447,7.695v30.78c-18.624,3.795-32.681,20.3-32.681,40.029V264.17c0,4.512,3.657,8.17,8.17,8.17    s8.17-3.658,8.17-8.17V122.553c0-10.651,6.831-19.733,16.34-23.105v339.02c0,0.878,0.142,1.751,0.419,2.584l21.785,65.362    c1.112,3.337,4.234,5.586,7.751,5.586c3.516,0,6.639-2.251,7.751-5.586l21.789-65.362c0.278-0.833,0.419-1.706,0.419-2.584V51.745    C512,48.189,509.724,45.172,506.553,44.049z M473.872,16.34h16.34v27.234h-16.34V16.34z M482.041,477.993l-10.451-31.355h20.904    L482.041,477.993z M495.66,430.298h-27.234V136.17h27.234V430.298z M495.66,119.83h-27.234V59.915h27.234V119.83z"
   id="path1014" />
	</g>
</g>
<g
   id="g1024">
	<g
   id="g1022">
		<path
   d="M264.17,65.362H106.213c-4.512,0-8.17,3.658-8.17,8.17v76.255c0,4.512,3.658,8.17,8.17,8.17H264.17    c4.513,0,8.17-3.658,8.17-8.17V73.532C272.34,69.02,268.683,65.362,264.17,65.362z M256,141.617H114.383V81.702H256V141.617z"
   id="path1020" />
	</g>
</g>
<path
   style="fill:#888c93;stroke-width:0.778968"
   d="m 7.2244978,797.98489 c -1.8715426,-0.92915 -4.0559125,-2.86333 -5.063291,-4.48335 L 0.38948393,790.65239 V 400 9.3476144 L 2.1715357,6.4817541 C 3.2211622,4.7937654 5.3307851,2.9492037 7.3044245,1.9937812 L 10.655262,0.37166868 242.71809,0.5753325 474.78092,0.77899638 480.59306,2.5800122 c 3.19667,0.9905586 8.98051,3.4258609 12.85297,5.4117829 5.78615,2.9673269 8.4419,5.0061929 14.90317,11.4414229 6.98721,6.959038 8.31294,8.741069 11.91037,16.00982 2.86489,5.788621 4.49126,10.342034 5.56461,15.579357 1.48927,7.26682 1.5166,13.556486 1.5166,348.977605 0,335.42112 -0.0273,341.71078 -1.5166,348.9776 -1.07335,5.23733 -2.69972,9.79074 -5.56461,15.57936 -3.59743,7.26875 -4.92316,9.05078 -11.91037,16.00982 -6.46127,6.43521 -9.11702,8.47408 -14.90317,11.4414 -3.87246,1.98598 -9.6563,4.42126 -12.85297,5.4118 l -5.81214,1.80105 -232.13243,0.19903 -232.132424,0.19902 z M 473.51009,773.55198 c 13.80545,-3.67445 24.09099,-14.13551 27.76423,-28.23801 1.01874,-3.91121 1.15995,-45.94977 1.15995,-345.31397 0,-373.508971 0.37026,-344.262018 -4.4852,-354.292224 -2.71064,-5.599517 -10.18856,-13.115338 -15.87793,-15.958396 -9.46944,-4.732014 7.44204,-4.413593 -234.94358,-4.423679 L 24.926972,25.316456 V 400 774.68354 l 222.200588,-0.009 c 190.10622,-0.008 222.80462,-0.17001 226.38253,-1.12231 z"
   id="path1511"
   transform="scale(0.64)" /><path
   style="fill:#888c93;stroke-width:0.778968"
   d="m 58.812074,747.45122 c -2.184772,-0.90963 -5.587653,-4.6833 -6.57167,-7.28771 -0.580746,-1.53708 -0.828525,-103.28903 -0.828525,-340.23924 0,-285.31311 0.167306,-338.437382 1.072514,-340.55299 0.589882,-1.378644 2.166935,-3.535839 3.504562,-4.793766 1.975914,-1.858182 3.272258,-2.345928 6.911908,-2.600585 3.737223,-0.261483 4.919943,-0.01147 7.134621,1.508173 1.46012,1.001889 3.388065,2.811294 4.284323,4.0209 l 1.62956,2.199284 V 400 740.29471 l -1.62956,2.19929 c -3.702637,4.99715 -10.326403,7.11451 -15.507733,4.95722 z"
   id="path1513"
   transform="scale(0.64)" /><path
   style="fill:#888c93;stroke-width:0.778968"
   d="m 160.43769,244.79065 c -2.53908,-1.28038 -3.94796,-2.68926 -5.22834,-5.22834 l -1.75268,-3.47567 V 174.4888 112.89097 l 1.75268,-3.47567 c 1.28038,-2.53908 2.68926,-3.94796 5.22834,-5.22835 l 3.47567,-1.75268 h 125.4732 125.4732 l 3.44159,1.75268 c 2.44539,1.24535 3.95878,2.74643 5.22835,5.18581 l 1.78676,3.43313 v 61.68291 61.68291 l -1.79376,3.39205 c -1.22604,2.31847 -2.86735,3.95978 -5.18581,5.18581 l -3.39206,1.79376 H 289.4291 163.91336 Z M 400.38948,174.4888 V 127.36125 H 289.38656 178.38364 v 47.12755 47.12756 h 111.00292 111.00292 z"
   id="path1515"
   transform="scale(0.64)" /><path
   style="fill:#888c93;stroke-width:0.778968"
   d="m 561.63623,798.73535 c -2.51317,-1.00215 -5.31176,-3.63186 -6.69564,-6.29157 -0.93569,-1.79841 -1.09444,-58.75745 -1.09444,-392.67939 V 9.1885227 l 1.75268,-2.5752172 c 3.98666,-5.85761974 9.73394,-7.615933 15.52585,-4.7499544 1.85027,0.9155556 4.06519,2.6235248 4.92206,3.7954871 1.55305,2.1241624 1.55793,3.3604327 1.55793,394.4847518 v 392.35394 l -2.3369,2.48397 c -3.9373,4.18508 -9.03179,5.58808 -13.63154,3.75385 z"
   id="path1517"
   transform="scale(0.64)" /><path
   style="fill:#888c93;stroke-width:0.778968"
   d="m 611.10029,797.88721 c -2.02172,-1.16043 -3.73133,-3.00783 -4.86855,-5.26092 l -1.75267,-3.47248 0.0171,-389.12412 c 0.0166,-377.791739 0.0593,-389.217128 1.46717,-392.3170754 2.14472,-4.7225432 5.68982,-6.93364673 11.11683,-6.93364673 4.77746,0 7.30626,1.31289803 10.33032,5.36327713 l 1.60606,2.1511431 0.19705,390.6147819 c 0.16796,332.95236 0.0364,390.99921 -0.89106,393.21896 -2.6681,6.38566 -11.17534,9.231 -17.22225,5.76008 z"
   id="path1519"
   transform="scale(0.64)" /><path
   style="fill:#888c93;stroke-width:0.778968"
   d="m 747.94908,798.30045 c -1.42256,-0.701 -3.39487,-2.35802 -4.38292,-3.68234 -1.07272,-1.43774 -8.89613,-23.76099 -19.41937,-55.41098 l -17.62293,-53.0032 V 420.80401 c 0,-182.10665 -0.2526,-265.39992 -0.80487,-265.39992 -2.02757,0 -8.83373,4.24646 -13.02381,8.12572 -4.34164,4.0196 -8.41694,10.28559 -10.57026,16.25235 -0.65991,1.82855 -1.0073,33.75247 -1.29869,119.3415 -0.39178,115.07628 -0.42138,116.88522 -1.95573,119.49014 -2.62271,4.45267 -5.2967,5.92369 -10.76793,5.92369 -3.84694,0 -5.30321,-0.36909 -7.2647,-1.84123 -5.36419,-4.02591 -5.0117,5.2203 -4.7702,-125.13053 0.2453,-132.40313 -0.33245,-120.30411 6.39788,-133.98248 4.01159,-8.15294 10.02208,-15.7419 16.95298,-21.40514 5.61313,-4.58649 17.00437,-10.43159 23.01574,-11.80988 l 4.08959,-0.93766 v -24.67693 c 0,-16.348507 0.29867,-25.570614 0.88495,-27.324839 1.00257,-2.999795 4.14234,-6.69218 6.26291,-7.365223 1.34199,-0.42593 1.42078,-2.080549 1.42078,-29.83417 0,-28.923309 0.0274,-29.437584 1.75268,-32.8556934 1.15484,-2.2880024 2.8155,-4.0670249 4.86855,-5.2155321 3.06532,-1.71479033 3.5745,-1.74327781 31.38449,-1.75588423 26.59679,-0.0120569 28.44641,0.0778906 31.27496,1.52090643 1.65348,0.8435464 3.83036,2.8591257 4.83752,4.4790652 1.82694,2.938541 1.83175,3.0146197 2.08176,32.9356071 l 0.25059,29.990263 2.43762,1.557936 c 1.34069,0.856865 3.15587,2.78481 4.03373,4.284323 l 1.59612,2.726388 V 382.47322 687.04966 L 781.8754,740.0603 c -9.75431,29.15586 -18.27796,53.7857 -18.94144,54.73292 -1.64232,2.34477 -6.71722,4.82111 -9.83574,4.79954 -1.40947,-0.0101 -3.72659,-0.59124 -5.14914,-1.29231 z m 13.78417,-75.80796 c 4.33785,-13.0673 7.887,-24.02153 7.887,-24.34274 0,-0.32122 -7.36124,-0.58402 -16.35832,-0.58402 -12.44293,0 -16.35833,0.22978 -16.35833,0.96001 0,1.96313 15.95463,48.828 16.43895,48.28754 0.27703,-0.30913 4.05285,-11.25349 8.3907,-24.32079 z M 775.07303,442.45375 V 212.26874 h -21.8111 -21.8111 v 230.18501 230.185 h 21.8111 21.8111 z m 0,-302.23953 V 93.08666 h -21.8111 -21.8111 v 47.12756 47.12755 h 21.8111 21.8111 z M 766.50438,46.738072 V 25.316456 h -13.24245 -13.24246 v 21.421616 21.421616 h 13.24246 13.24245 z"
   id="path1521"
   transform="scale(0.64)" /></svg>
