<?xml version="1.0" encoding="UTF-8" standalone="no"?>
<!-- Uploaded to: SVG Repo, www.svgrepo.com, Generator: SVG Repo Mixer Tools -->

<svg
   version="1.1"
   id="Layer_1"
   width="800px"
   height="800px"
   viewBox="0 0 40 40"
   enable-background="new 0 0 40 40"
   xml:space="preserve"
   sodipodi:docname="rss.svg"
   inkscape:version="1.2.2 (b0a8486541, 2022-12-01)"
   xmlns:inkscape="http://www.inkscape.org/namespaces/inkscape"
   xmlns:sodipodi="http://sodipodi.sourceforge.net/DTD/sodipodi-0.dtd"
   xmlns="http://www.w3.org/2000/svg"
   xmlns:svg="http://www.w3.org/2000/svg"><defs
   id="defs1638" /><sodipodi:namedview
   id="namedview1636"
   pagecolor="#505050"
   bordercolor="#ffffff"
   borderopacity="1"
   inkscape:showpageshadow="0"
   inkscape:pageopacity="0"
   inkscape:pagecheckerboard="1"
   inkscape:deskcolor="#505050"
   showgrid="false"
   inkscape:zoom="1.28375"
   inkscape:cx="400"
   inkscape:cy="400"
   inkscape:window-width="3770"
   inkscape:window-height="2026"
   inkscape:window-x="0"
   inkscape:window-y="32"
   inkscape:window-maximized="1"
   inkscape:current-layer="Layer_1" />
<g
   display="none"
   id="g1621">
	<path
   display="inline"
   d="M20.01,36.5c-0.277,0-0.537-0.137-0.693-0.368L9.468,21.529c-1.171-1.861-1.79-3.993-1.79-6.162   C7.678,8.824,13.206,3.5,20,3.5c6.795,0,12.322,5.324,12.322,11.867c0,2.164-0.612,4.284-1.77,6.129l-9.851,14.636   C20.547,36.363,20.287,36.5,20.01,36.5L20.01,36.5z M20,5.17c-5.873,0-10.652,4.574-10.652,10.197c0,1.854,0.525,3.669,1.52,5.251   l9.14,13.55l9.146-13.581c0.981-1.566,1.499-3.371,1.499-5.22C30.652,9.744,25.873,5.17,20,5.17L20,5.17z"
   id="path1617" />
	<path
   display="inline"
   d="M20,20.857c-3.159,0-5.728-2.482-5.728-5.535c0-3.051,2.569-5.534,5.728-5.534s5.729,2.483,5.729,5.534   C25.729,18.375,23.158,20.857,20,20.857L20,20.857z M20,11.458c-2.237,0-4.057,1.734-4.057,3.864c0,2.13,1.82,3.865,4.057,3.865   s4.058-1.734,4.058-3.865C24.058,13.192,22.236,11.458,20,11.458L20,11.458z"
   id="path1619" />
</g>
<path
   display="none"
   d="M36.705,34.289L26.059,23.615c3.918-4.69,3.688-11.708-0.707-16.114C23.1,5.243,20.104,4,16.919,4  S10.74,5.243,8.488,7.501c-4.647,4.66-4.647,12.241,0,16.899c2.253,2.257,5.248,3.5,8.431,3.5c2.866,0,5.573-1.015,7.728-2.86  l10.639,10.665C35.479,35.902,35.738,36,35.994,36s0.514-0.098,0.709-0.293C37.096,35.316,37.097,34.68,36.705,34.289z   M9.766,23.126c-3.945-3.958-3.945-10.395,0-14.351c1.912-1.914,4.452-2.97,7.153-2.97s5.243,1.056,7.153,2.97  c3.946,3.956,3.946,10.394,0,14.351c-1.91,1.914-4.452,2.969-7.153,2.969S11.678,25.04,9.766,23.126z"
   id="path1623" />
<path
   display="none"
   d="M25.38,34.848c-0.066,0-0.136-0.009-0.206-0.024l-10.498-2.561l-10.61,2.561  c-0.069,0.016-0.139,0.024-0.205,0.024c-0.191,0-0.38-0.064-0.532-0.184C3.12,34.5,3,34.252,3,33.986V8.635  c0-0.397,0.27-0.741,0.657-0.836l10.76-2.623l0.407,0.003l10.504,2.558l10.607-2.561c0.065-0.016,0.135-0.023,0.203-0.023  c0.195,0,0.38,0.063,0.533,0.183C36.881,5.499,37,5.746,37,6.012v25.352c0,0.397-0.27,0.741-0.656,0.837l-10.759,2.622  C25.516,34.839,25.446,34.848,25.38,34.848L25.38,34.848z M15.481,30.688l9.039,2.203V9.311l-9.039-2.203V30.688z M26.24,9.311  v23.58l9.039-2.202V7.108L26.24,9.311z M4.721,9.311v23.58l9.039-2.202V7.108L4.721,9.311z"
   id="path1625" />
<g
   id="g1633">
	<path
   d="M9.708,35C7.112,35,5,32.893,5,30.303c0-2.592,2.112-4.699,4.708-4.699c2.595,0,4.707,2.107,4.707,4.699   C14.415,32.893,12.303,35,9.708,35L9.708,35z M9.708,27.445c-1.578,0-2.863,1.281-2.863,2.857c0,1.574,1.285,2.855,2.863,2.855   c1.578,0,2.861-1.281,2.861-2.855C12.568,28.727,11.285,27.445,9.708,27.445L9.708,27.445z"
   id="path1627" />
	<path
   d="M24.574,35c-0.621,0-1.125-0.505-1.125-1.126c0-9.552-7.771-17.324-17.323-17.324C5.505,16.55,5,16.045,5,15.425   s0.505-1.126,1.126-1.126c10.792,0,19.573,8.781,19.573,19.575C25.699,34.495,25.193,35,24.574,35L24.574,35z"
   id="path1629" />
	<path
   d="M33.916,35c-0.597,0-1.082-0.486-1.082-1.084c0-14.75-12-26.751-26.751-26.751C5.486,7.165,5,6.68,5,6.083   C5,5.486,5.486,5,6.083,5C22.027,5,35,17.972,35,33.916C35,34.514,34.514,35,33.916,35L33.916,35z"
   id="path1631" />
</g>
<path
   style="fill:#888c93;stroke-width:0.778968"
   d="m 184.0095,699.10378 c -40.8327,-4.64503 -74.22951,-35.61786 -82.06093,-76.10485 -1.87744,-9.70603 -1.73777,-25.65216 0.30891,-35.26767 11.7916,-55.39822 68.30859,-88.14324 121.46973,-70.37758 51.4615,17.19767 77.60767,74.28916 56.97706,124.41229 -11.73858,28.51953 -38.58126,50.33188 -69.05273,56.11222 -8.10053,1.53664 -20.19413,2.07285 -27.64204,1.22559 z m 27.86976,-38.40572 c 9.06377,-2.96834 15.48202,-7.0235 23.00041,-14.53205 11.3221,-11.30729 16.62077,-24.10035 16.62077,-40.12901 0,-16.02866 -5.29867,-28.82172 -16.62077,-40.12901 -7.47648,-7.46668 -13.85988,-11.51428 -23.00041,-14.5841 -5.59812,-1.88012 -7.38018,-2.0959 -17.52678,-2.12223 -12.38645,-0.0322 -16.34647,0.77626 -25.38109,5.18137 -11.68894,5.6993 -20.44729,14.53715 -26.48658,26.727 -16.01494,32.32494 2.38348,71.69732 37.68022,80.63516 8.84077,2.23866 23.12085,1.76717 31.71423,-1.04713 z"
   id="path2120"
   transform="scale(0.05)" /><path
   style="fill:#888c93;stroke-width:0.778968"
   d="m 487.03756,699.08411 c -7.78807,-1.91193 -14.58359,-8.12819 -16.48786,-15.08242 -0.63151,-2.30622 -1.27439,-9.90088 -1.5379,-18.16795 -2.8039,-87.96599 -38.81131,-170.872 -101.39243,-233.45311 -54.54862,-54.54864 -124.99142,-89.2263 -200.92025,-98.90929 -12.38265,-1.57912 -29.30485,-2.79239 -39.00175,-2.79631 -10.14043,-0.004 -14.63298,-1.33848 -19.62885,-5.83021 -9.946329,-8.9426 -10.014222,-23.74345 -0.1496,-32.61259 6.74426,-6.06367 11.64812,-6.74191 37.35859,-5.16697 115.50132,7.07523 219.72952,63.15447 289.93075,155.99517 48.92239,64.69955 77.4199,147.27044 78.02407,226.07297 0.10568,13.7845 0.0724,14.08723 -1.96511,17.91626 -1.13994,2.14216 -3.24315,5.01612 -4.67381,6.38659 -4.89104,4.68521 -13.43072,7.15154 -19.55585,5.64786 z"
   id="path2122"
   transform="scale(0.05)" /><path
   style="fill:#888c93;stroke-width:0.778968"
   d="m 673.26443,698.81255 c -7.35388,-1.97972 -13.03398,-7.31614 -15.10225,-14.18847 -0.63594,-2.11308 -1.10297,-6.99192 -1.10324,-11.5249 -6.1e-4,-10.80007 -1.33903,-34.22444 -2.78584,-48.75643 C 636.47357,445.56062 528.7632,287.04344 368.01628,203.05905 320.11515,178.03246 266.05322,159.80529 213.04771,150.81087 c -26.70013,-4.5307 -49.0565,-6.70695 -79.8442,-7.77231 -16.39743,-0.5674 -17.30948,-0.68156 -21.12541,-2.64409 -6.04145,-3.10711 -9.61343,-7.89318 -11.21089,-15.0214 -2.382334,-10.63043 5.46804,-22.15317 16.67836,-24.48042 4.88103,-1.013297 37.5259,0.10459 57.29197,1.9619 136.15017,12.7933 260.88596,71.9566 357.33554,169.48744 16.83814,17.02691 26.4453,27.76794 40.32782,45.08742 71.2091,88.83873 114.10564,194.7602 124.66029,307.81503 1.82787,19.57894 2.93557,52.3948 1.93259,57.25308 -1.6406,7.94681 -7.73412,14.27945 -15.73807,16.35565 -4.79058,1.24266 -5.33247,1.24048 -10.09128,-0.0406 z"
   id="path2124"
   transform="scale(0.05)" /></svg>
