<?xml version="1.0" encoding="UTF-8" standalone="no"?>
<!-- Uploaded to: SVG Repo, www.svgrepo.com, Generator: SVG Repo Mixer Tools -->

<svg
   width="800px"
   height="800px"
   viewBox="0 0 32 32"
   version="1.1"
   id="svg2184"
   sodipodi:docname="search.svg"
   inkscape:version="1.2.2 (b0a8486541, 2022-12-01)"
   xmlns:inkscape="http://www.inkscape.org/namespaces/inkscape"
   xmlns:sodipodi="http://sodipodi.sourceforge.net/DTD/sodipodi-0.dtd"
   xmlns="http://www.w3.org/2000/svg"
   xmlns:svg="http://www.w3.org/2000/svg"
   xmlns:sketch="http://www.bohemiancoding.com/sketch/ns">
  <sodipodi:namedview
     id="namedview2186"
     pagecolor="#505050"
     bordercolor="#ffffff"
     borderopacity="1"
     inkscape:showpageshadow="0"
     inkscape:pageopacity="0"
     inkscape:pagecheckerboard="1"
     inkscape:deskcolor="#505050"
     showgrid="false"
     inkscape:zoom="1.28375"
     inkscape:cx="400"
     inkscape:cy="400"
     inkscape:window-width="3770"
     inkscape:window-height="2026"
     inkscape:window-x="0"
     inkscape:window-y="32"
     inkscape:window-maximized="1"
     inkscape:current-layer="svg2184" />
  <title
     id="title2175">search</title>
  <desc
     id="desc2177">Created with Sketch Beta.</desc>
  <defs
     id="defs2179" />
  <g
     id="Page-1"
     stroke="none"
     stroke-width="1"
     fill="none"
     fill-rule="evenodd"
     sketch:type="MSPage">
    <g
       id="Icon-Set"
       sketch:type="MSLayerGroup"
       transform="translate(-256.000000, -1139.000000)"
       fill="#000000">
      <path
         d="M269.46,1163.45 C263.17,1163.45 258.071,1158.44 258.071,1152.25 C258.071,1146.06 263.17,1141.04 269.46,1141.04 C275.75,1141.04 280.85,1146.06 280.85,1152.25 C280.85,1158.44 275.75,1163.45 269.46,1163.45 L269.46,1163.45 Z M287.688,1169.25 L279.429,1161.12 C281.591,1158.77 282.92,1155.67 282.92,1152.25 C282.92,1144.93 276.894,1139 269.46,1139 C262.026,1139 256,1144.93 256,1152.25 C256,1159.56 262.026,1165.49 269.46,1165.49 C272.672,1165.49 275.618,1164.38 277.932,1162.53 L286.224,1170.69 C286.629,1171.09 287.284,1171.09 287.688,1170.69 C288.093,1170.3 288.093,1169.65 287.688,1169.25 L287.688,1169.25 Z"
         id="search"
         sketch:type="MSShapeGroup" />
    </g>
  </g>
  <path
     style="fill:#888c93;stroke-width:0.778968"
     d="m 768.71957,798.83155 c -6.6552,-1.38298 -9.83551,-3.91595 -30.25803,-24.09923 -11.13924,-11.00873 -53.20351,-52.3898 -93.47615,-91.95794 -40.27263,-39.56814 -78.49106,-77.14575 -84.92985,-83.50579 l -11.70687,-11.56373 -6.98836,5.35198 c -33.65924,25.77768 -76.09031,46.51462 -117.35879,57.35564 -32.28933,8.48225 -61.25171,11.85284 -95.27708,11.08819 -27.88611,-0.62668 -49.41566,-3.48159 -75.44157,-10.00388 C 101.77349,613.52747 -3.7715823,476.24148 0.64491389,322.88218 2.0148093,275.31366 12.348552,232.23953 32.376904,190.61376 40.360973,174.02014 44.723315,166.37443 55.355083,150.3408 104.4583,76.288863 181.12878,24.929282 269.1334,7.1362044 325.39711,-4.239387 385.58816,-0.95571033 439.90288,16.452403 c 86.6819,27.781939 158.06166,88.672707 198.42478,169.266997 31.04272,61.98395 41.43412,133.93239 29.2044,202.2066 -10.42724,58.21158 -37.18966,113.77732 -75.95421,157.70071 l -6.36492,7.21197 4.56978,4.63893 c 2.51338,2.55141 49.53691,48.87353 104.49674,102.93802 91.46925,89.97917 100.13738,98.72252 102.41266,103.30203 7.68366,15.46512 -2.87384,33.732 -20.45063,35.38396 -2.35638,0.22153 -5.74123,0.0999 -7.52191,-0.27007 z M 352.48296,611.09664 c 61.4263,-3.6737 116.57643,-24.6513 164.11075,-62.42325 12.15418,-9.65802 34.09978,-31.4695 43.38838,-43.12324 34.58429,-43.3904 54.87738,-93.20298 60.45379,-148.39338 1.22401,-12.11421 1.03286,-41.37437 -0.35669,-54.60041 C 610.17153,208.25355 552.97485,125.53408 467.7185,82.208047 425.47378,60.739889 384.63864,51.039075 336.51412,51.039075 c -25.97404,0 -46.10003,2.296361 -68.81282,7.851496 C 158.65667,85.560896 75.316298,173.40403 55.740612,282.3032 c -4.976445,27.68387 -5.434066,63.01425 -1.171343,90.43292 7.671412,49.34403 27.109812,93.48825 58.483131,132.81403 9.24541,11.58892 31.1889,33.41305 43.28836,43.0529 16.71397,13.31631 37.2557,26.23552 55.51515,34.91487 43.86118,20.84875 92.77199,30.44077 140.62705,27.57872 z"
     id="path2722"
     transform="scale(0.04)" />
</svg>
