<?xml version="1.0" encoding="UTF-8" standalone="no"?>
<!-- Uploaded to: SVG Repo, www.svgrepo.com, Generator: SVG Repo Mixer Tools -->

<svg
   fill="#000000"
   version="1.1"
   id="icon"
   width="800px"
   height="800px"
   viewBox="0 0 32 32"
   xml:space="preserve"
   sodipodi:docname="settings.svg"
   inkscape:version="1.2.2 (b0a8486541, 2022-12-01)"
   xmlns:inkscape="http://www.inkscape.org/namespaces/inkscape"
   xmlns:sodipodi="http://sodipodi.sourceforge.net/DTD/sodipodi-0.dtd"
   xmlns="http://www.w3.org/2000/svg"
   xmlns:svg="http://www.w3.org/2000/svg"><defs
   id="defs4947" /><sodipodi:namedview
   id="namedview4945"
   pagecolor="#505050"
   bordercolor="#ffffff"
   borderopacity="1"
   inkscape:showpageshadow="0"
   inkscape:pageopacity="0"
   inkscape:pagecheckerboard="1"
   inkscape:deskcolor="#505050"
   showgrid="false"
   inkscape:zoom="1.28375"
   inkscape:cx="400"
   inkscape:cy="400.77897"
   inkscape:window-width="1444"
   inkscape:window-height="1236"
   inkscape:window-x="2326"
   inkscape:window-y="817"
   inkscape:window-maximized="0"
   inkscape:current-layer="icon" />
<style
   type="text/css"
   id="style4935">
	.st0{fill:none;}
</style>
<title
   id="title4937">settings--adjust</title>
<path
   d="M30,8h-4.1c-0.5-2.3-2.5-4-4.9-4s-4.4,1.7-4.9,4H2v2h14.1c0.5,2.3,2.5,4,4.9,4s4.4-1.7,4.9-4H30V8z M21,12c-1.7,0-3-1.3-3-3  s1.3-3,3-3s3,1.3,3,3S22.7,12,21,12z"
   id="path4939" />
<path
   d="M2,24h4.1c0.5,2.3,2.5,4,4.9,4s4.4-1.7,4.9-4H30v-2H15.9c-0.5-2.3-2.5-4-4.9-4s-4.4,1.7-4.9,4H2V24z M11,20c1.7,0,3,1.3,3,3  s-1.3,3-3,3s-3-1.3-3-3S9.3,20,11,20z"
   id="path4941" />
<rect
   id="_Transparent_Rectangle_"
   class="st0"
   width="32"
   height="32" />
<path
   style="fill:#888c93;stroke-width:0.778968"
   d="m 506.01713,348.1869 c -47.53989,-7.72452 -86.35367,-41.96224 -100.50785,-88.65819 -1.53059,-5.04957 -2.78289,-9.33594 -2.78289,-9.52527 0,-0.18933 -79.22103,-0.34424 -176.04674,-0.34424 H 50.632911 V 225.12171 200.58423 H 226.64963 402.66634 l 0.8377,-3.31062 c 12.64433,-49.97093 51.55318,-86.4323 101.65662,-95.26213 10.51851,-1.8537 29.20885,-1.8537 39.72736,0 39.79899,7.01385 72.34286,30.92784 90.68178,66.63506 4.2219,8.22035 8.89676,20.41436 10.97485,28.62707 l 0.8377,3.31062 h 50.99236 50.99238 v 24.53188 24.53189 l -51.14064,0.20034 -51.14063,0.20035 -1.81771,6.84756 c -8.9873,33.85663 -34.42118,64.64354 -66.1055,80.01866 -9.71625,4.71489 -19.27839,8.06214 -29.05628,10.1712 -10.03269,2.16403 -33.88108,2.75945 -44.0892,1.10079 z m 38.48141,-50.20179 c 8.32008,-2.05254 20.54853,-8.01114 27.65336,-13.47475 13.03357,-10.02281 22.79117,-25.84077 26.54407,-43.03032 2.16743,-9.92757 1.82916,-25.9277 -0.75741,-35.82589 -6.58879,-25.21376 -23.8971,-43.95975 -48.02816,-52.01754 -9.11418,-3.04339 -16.45861,-3.93838 -28.54982,-3.47907 -12.04719,0.45763 -19.5158,2.11427 -28.73508,6.37384 -21.81522,10.07926 -36.46739,28.97405 -41.71198,53.78994 -1.61896,7.66044 -1.22968,24.4896 0.7533,32.5663 7.33261,29.86579 29.06706,50.53063 59.13351,56.22339 8.42048,1.59432 24.90404,1.04358 33.69821,-1.1259 z"
   id="path5545"
   transform="scale(0.04)" /><path
   style="fill:#888c93;stroke-width:0.778968"
   d="M 263.31866,699.05556 C 210.56922,693.97739 167.4904,656.19534 153.48483,602.72639 l -0.86718,-3.31062 H 101.62528 50.632911 V 574.87829 550.3408 h 51.046839 c 40.15677,0 51.11141,-0.20773 51.34947,-0.97371 0.16644,-0.53554 1.1888,-4.1682 2.2719,-8.07255 7.20402,-25.969 25.8589,-52.1961 48.62141,-68.35735 12.95056,-9.19483 31.79879,-17.22929 48.07358,-20.4924 9.96408,-1.9978 36.03374,-1.99469 45.93084,0.005 46.16985,9.33079 82.84494,42.76133 96.56377,88.02102 1.53059,5.04957 2.78289,9.33594 2.78289,9.52527 0,0.18933 79.22103,0.34424 176.04674,0.34424 h 176.04674 v 24.53749 24.53748 H 573.35037 397.33366 l -0.8377,3.31062 c -13.54155,53.51681 -57.01402,91.24263 -111.04544,96.3663 -9.4553,0.89662 -12.48538,0.89154 -22.13186,-0.0372 z m 32.27637,-51.30277 c 27.82404,-7.66456 47.30853,-28.81832 53.49145,-58.07411 1.61896,-7.66044 1.22968,-24.4896 -0.7533,-32.5663 -5.61841,-22.88385 -18.94185,-39.67904 -39.36495,-49.62247 -11.76705,-5.72905 -19.22548,-7.33941 -33.99257,-7.33941 -9.8957,0 -13.32154,0.31301 -18.98889,1.735 -26.02408,6.52965 -46.35901,26.15292 -53.38865,51.52021 -10.95145,39.51966 9.71717,80.48534 46.75309,92.6657 10.36743,3.40964 14.47477,3.95587 27.57187,3.66675 9.79887,-0.21632 13.79081,-0.64077 18.67195,-1.98537 z"
   id="path5547"
   transform="scale(0.04)" /></svg>
